<svg width="20" height="20" viewBox="0 0 20 20" fill="none" xmlns="http://www.w3.org/2000/svg">
<g clip-path="url(#clip0_245_1052)">
<path d="M9.80774 0.833328V19.1667M13.7995 4.16666H7.81184C7.07075 4.16666 6.36002 4.47395 5.836 5.02093C5.31197 5.56791 5.01758 6.30978 5.01758 7.08333C5.01758 7.85688 5.31197 8.59874 5.836 9.14572C6.36002 9.6927 7.07075 9.99999 7.81184 9.99999H11.8036C12.5447 9.99999 13.2555 10.3073 13.7795 10.8543C14.3035 11.4012 14.5979 12.1431 14.5979 12.9167C14.5979 13.6902 14.3035 14.4321 13.7795 14.9791C13.2555 15.526 12.5447 15.8333 11.8036 15.8333H5.01758" stroke="#008236" stroke-width="3" stroke-linecap="round" stroke-linejoin="round"/>
</g>
<defs>
<clipPath id="clip0_245_1052">
<rect width="19.1606" height="20" fill="white" transform="translate(0.227539)"/>
</clipPath>
</defs>
</svg>
